<svg width="53" height="19" viewBox="0 0 53 19" fill="none" xmlns="http://www.w3.org/2000/svg">
<path d="M12.08 18L13.616 7.224L9.104 18H5.816L6.296 7.176L2.288 18H0.368L6.464 1.512C5.264 1.912 4.328 2.568 3.656 3.48C2.984 4.392 2.648 5.536 2.648 6.912C2.648 7.2 2.664 7.44 2.696 7.632C2.728 7.808 2.76 7.96 2.792 8.088C2.824 8.2 2.856 8.296 2.888 8.376C2.936 8.456 2.968 8.52 2.984 8.568C2.216 8.568 1.592 8.408 1.112 8.088C0.648 7.752 0.416 7.192 0.416 6.408C0.416 5.64 0.64 4.872 1.088 4.104C1.552 3.336 2.144 2.648 2.864 2.04C3.584 1.432 4.392 0.944 5.288 0.576C6.2 0.191999 7.104 -1.43051e-06 8 -1.43051e-06C8.656 -1.43051e-06 9.28 0.111999 9.872 0.335999L9.32 12.984L14.6 0.335999H18.056L15.536 18H12.08ZM23.4569 6L21.7289 14.16C21.6809 14.352 21.6569 14.552 21.6569 14.76C21.6569 15.032 21.7049 15.28 21.8009 15.504C21.9129 15.712 22.1049 15.816 22.3769 15.816C22.8409 15.816 23.2329 15.616 23.5529 15.216C23.8729 14.816 24.1209 14.312 24.2969 13.704L25.9289 6H29.3849L27.6569 14.16C27.5929 14.432 27.5609 14.688 27.5609 14.928C27.5609 15.264 27.6409 15.496 27.8009 15.624C27.9609 15.752 28.2089 15.816 28.5449 15.816C28.7689 15.816 28.9289 15.8 29.0249 15.768C29.1209 15.736 29.2249 15.704 29.3369 15.672C29.2729 16.536 28.9769 17.168 28.4489 17.568C27.9209 17.952 27.3289 18.144 26.6729 18.144C26.0009 18.144 25.4569 17.944 25.0409 17.544C24.6409 17.144 24.4009 16.584 24.3209 15.864C24.0169 16.36 23.7049 16.76 23.3849 17.064C23.0809 17.352 22.7689 17.576 22.4489 17.736C22.1449 17.896 21.8489 18 21.5609 18.048C21.2729 18.112 21.0009 18.144 20.7449 18.144C20.0249 18.144 19.4169 17.92 18.9209 17.472C18.4249 17.008 18.1769 16.272 18.1769 15.264C18.1769 14.832 18.2409 14.312 18.3689 13.704L20.0009 6H23.4569ZM38.3223 15.816C38.1623 15.8 38.0423 15.744 37.9623 15.648C37.8983 15.552 37.8663 15.44 37.8663 15.312C37.8663 15.088 37.9783 14.864 38.2023 14.64C38.4263 14.4 38.7623 14.28 39.2103 14.28C39.5783 14.28 39.8423 14.392 40.0023 14.616C40.1783 14.84 40.2663 15.112 40.2663 15.432C40.2663 15.704 40.2023 15.992 40.0743 16.296C39.9463 16.6 39.7543 16.88 39.4983 17.136C39.2423 17.392 38.9303 17.6 38.5623 17.76C38.2103 17.92 37.8023 18 37.3383 18H30.9783L37.0983 7.296H35.7543C35.3863 7.296 35.0743 7.32 34.8183 7.368C34.5623 7.4 34.4343 7.504 34.4343 7.68C34.4343 7.712 34.4423 7.736 34.4583 7.752C34.4903 7.752 34.5223 7.768 34.5543 7.8C34.6023 7.816 34.6343 7.856 34.6503 7.92C34.6823 7.968 34.6983 8.064 34.6983 8.208C34.6983 8.656 34.5623 8.984 34.2903 9.192C34.0183 9.384 33.7223 9.48 33.4023 9.48C33.1303 9.48 32.8743 9.392 32.6343 9.216C32.4103 9.04 32.2983 8.776 32.2983 8.424C32.2983 8.184 32.3623 7.92 32.4903 7.632C32.6183 7.344 32.8023 7.08 33.0423 6.84C33.2823 6.6 33.5703 6.4 33.9063 6.24C34.2583 6.08 34.6503 6 35.0823 6H41.2503L35.3703 16.152C35.5783 16.168 35.8503 16.2 36.1863 16.248C36.5383 16.28 36.8743 16.296 37.1943 16.296C37.4823 16.296 37.7303 16.264 37.9383 16.2C38.1623 16.136 38.2903 16.008 38.3223 15.816ZM47.4839 5.88C49.3399 5.88 50.3559 6.928 50.5319 9.024C50.7239 8.976 50.9079 8.88 51.0839 8.736C51.2599 8.592 51.4119 8.44 51.5399 8.28C51.6839 8.104 51.8039 7.936 51.8999 7.776C52.0119 7.616 52.0999 7.48 52.1639 7.368H52.9319C52.6919 7.88 52.3799 8.448 51.9959 9.072C51.6279 9.696 51.1319 10.192 50.5079 10.56C50.4439 11.728 50.2439 12.784 49.9079 13.728C49.5879 14.656 49.1719 15.448 48.6599 16.104C48.1479 16.76 47.5559 17.264 46.8839 17.616C46.2119 17.968 45.4999 18.144 44.7479 18.144C44.1879 18.144 43.6679 18.08 43.1879 17.952C42.7239 17.808 42.3239 17.584 41.9879 17.28C41.6519 16.976 41.3879 16.584 41.1959 16.104C41.0039 15.624 40.9079 15.04 40.9079 14.352C40.9079 13.888 40.9559 13.36 41.0519 12.768C41.1479 12.176 41.2999 11.568 41.5079 10.944C41.7319 10.304 42.0119 9.688 42.3479 9.096C42.6839 8.488 43.0919 7.944 43.5719 7.464C44.0679 6.984 44.6359 6.6 45.2759 6.312C45.9159 6.024 46.6519 5.88 47.4839 5.88ZM45.7079 15.888C45.9959 15.888 46.2839 15.768 46.5719 15.528C46.8759 15.272 47.1479 14.928 47.3879 14.496C47.6439 14.048 47.8679 13.528 48.0599 12.936C48.2519 12.328 48.3959 11.672 48.4919 10.968C48.0599 10.856 47.8439 10.488 47.8439 9.864C47.8439 9.528 47.9079 9.256 48.0359 9.048C48.1799 8.824 48.3639 8.672 48.5879 8.592C48.5559 8.128 48.4679 7.8 48.3239 7.608C48.1959 7.416 47.9799 7.32 47.6759 7.32C47.2439 7.32 46.8359 7.56 46.4519 8.04C46.0679 8.504 45.7319 9.08 45.4439 9.768C45.1559 10.44 44.9239 11.16 44.7479 11.928C44.5719 12.68 44.4839 13.352 44.4839 13.944C44.4839 14.344 44.4999 14.672 44.5319 14.928C44.5799 15.168 44.6519 15.36 44.7479 15.504C44.8439 15.648 44.9719 15.752 45.1319 15.816C45.2919 15.864 45.4839 15.888 45.7079 15.888Z" fill="#008AEE"/>
</svg>
